<?xml version="1.0" encoding="utf-8"?><svg xmlns="http://www.w3.org/2000/svg" xmlns:xlink="http://www.w3.org/1999/xlink" width="1802" height="876" preserveAspectRatio="xMidYMid" viewBox="0 0 1802 876" style="z-index:1;margin-right:-1.93939px;display:block;background-color:rgb(22, 22, 23);animation-play-state:paused" ><g transform="translate(901,438) scale(1,1) translate(-901,-438)" style="transform:matrix(1, 0, 0, 1, 0, 0);animation-play-state:paused" ><linearGradient id="lg-0.1599031597221765" x1="0" x2="1" y1="0" y2="0" style="animation-play-state:paused" ><stop stop-color="#2c2c2e" offset="0" style="animation-play-state:paused" ></stop>

  
<stop stop-color="#2c2c2e" offset="1" style="animation-play-state:paused" ></stop></linearGradient>
<path d="M 0 0 L 0 782.9 Q 180.2 686.51 360.4 671.969 T 720.8 690.334 T 1081.2 525.047 T 1441.6 411.601 T 1802 277.758 L 1802 0 Z" fill="url(#lg-0.1599031597221765)" opacity="0.4" style="opacity:0.4;animation-play-state:paused" ></path>
<path d="M 0 0 L 0 741.352 Q 180.2 752.493 360.4 706.264 T 720.8 645.888 T 1081.2 558.381 T 1441.6 503.315 T 1802 417.085 L 1802 0 Z" fill="url(#lg-0.1599031597221765)" opacity="0.4" style="opacity:0.4;animation-play-state:paused" ></path>
<path d="M 0 0 L 0 735.52 Q 180.2 742.004 360.4 718.616 T 720.8 609.001 T 1081.2 599.083 T 1441.6 376.154 T 1802 312.286 L 1802 0 Z" fill="url(#lg-0.1599031597221765)" opacity="0.4" style="opacity:0.4;animation-play-state:paused" ></path>
<path d="M 0 0 L 0 744.38 Q 180.2 691.871 360.4 646.484 T 720.8 602.303 T 1081.2 524.983 T 1441.6 539.295 T 1802 355.684 L 1802 0 Z" fill="url(#lg-0.1599031597221765)" opacity="0.4" style="opacity:0.4;animation-play-state:paused" ></path>
<path d="M 0 0 L 0 746.921 Q 180.2 814.222 360.4 780.365 T 720.8 650.96 T 1081.2 572.569 T 1441.6 491.677 T 1802 349.97 L 1802 0 Z" fill="url(#lg-0.1599031597221765)" opacity="0.4" style="opacity:0.4;animation-play-state:paused" ></path></g></svg>