<svg xmlns="http://www.w3.org/2000/svg" version="1.1" xmlns:xlink="http://www.w3.org/1999/xlink" xmlns:svgjs="http://svgjs.dev/svgjs" width="1440" height="560" preserveAspectRatio="none" viewBox="0 0 1440 560"><g mask="url(&quot;#SvgjsMask1075&quot;)" fill="none"><path d="M 0,108 C 72,158.8 216,329.8 360,362 C 504,394.2 576,269.2 720,269 C 864,268.8 936,394.2 1080,361 C 1224,327.8 1368,154.6 1440,103L1440 560L0 560z" fill="rgba(46, 52, 64, 0.19)"></path><path d="M 0,405 C 57.6,346 172.8,131.2 288,110 C 403.2,88.8 460.8,306.2 576,299 C 691.2,291.8 748.8,70.6 864,74 C 979.2,77.4 1036.8,323.6 1152,316 C 1267.2,308.4 1382.4,92 1440,36L1440 560L0 560z" fill="rgba(46, 52, 64, 0.13)"></path><path d="M 0,519 C 144,440.8 432,129.6 720,128 C 1008,126.4 1296,434.4 1440,511L1440 560L0 560z" fill="rgba(46, 52, 64, 0.12)"></path></g><defs><mask id="SvgjsMask1075"><rect width="1440" height="560" fill="#ffffff"></rect></mask></defs></svg>